<?xml version="1.0" encoding="UTF-8"?>
<svg width="239px" height="332px" viewBox="0 0 239 332" version="1.1" xmlns="http://www.w3.org/2000/svg" xmlns:xlink="http://www.w3.org/1999/xlink">
    <!-- Generator: Sketch 52.2 (67145) - http://www.bohemiancoding.com/sketch -->
    <title>ManColor</title>
    <desc>Created with Sketch.</desc>
    <defs>
        <linearGradient x1="-111.918367%" y1="-84.4285714%" x2="285.693878%" y2="245.612245%" id="linearGradient-1">
            <stop stop-color="#C62026" offset="0%"></stop>
            <stop stop-color="#F9A01F" offset="0%"></stop>
            <stop stop-color="#C62026" offset="100%"></stop>
        </linearGradient>
        <linearGradient x1="12.7996647%" y1="17.9758561%" x2="94.450964%" y2="66.9148346%" id="linearGradient-2">
            <stop stop-color="#C62026" offset="0%"></stop>
            <stop stop-color="#F9A01F" offset="0%"></stop>
            <stop stop-color="#C82027" offset="71%"></stop>
            <stop stop-color="#481211" offset="100%"></stop>
        </linearGradient>
    </defs>
    <g id="Page-1" stroke="none" stroke-width="1" fill="none" fill-rule="evenodd">
        <g id="ApacheDataSketch_VerticalColor">
            <g id="Group">
                <circle id="Oval" fill="url(#linearGradient-1)" cx="81.7" cy="159.9" r="24.5"></circle>
                <path d="M186.3,69.7 C202.8,47.3 230.9,9.8 238.6,0.7 C238.6,0.4 220.6,6 220.6,6 C220.6,6 191.5,47 172.5,80 C153.5,113 138,140 100.1,217 C89.8,237.8 78,233.2 62.1,218.7 C46.2,204.2 7.9,168.1 7.9,143.5 C7.9,114.4 29.6,107.4 45.1,104.3 C53.9,102.5 57.2,105.5 57.2,107.8 C57.2,110.1 48.2,113 41,110.9 C38.9,110.3 43,116 52.2,116 C58,116 69.6,113.3 69.6,107.4 C69.6,104 66.4,99.7 53.8,99.7 C44.6,99.7 27.8,104.7 19.1,109.9 C10.4,115.1 0,124 0,136.9 C0,176.6 78.9,239.6 87.8,245.1 C87.8,245 74.5,283.1 74.5,304.1 C74.5,319.2 76.9,330 77.4,331.1 C77.9,332.2 104.8,310.7 128.5,303.5 C152.2,296.3 175,289.5 220.6,289.8 C220.6,289.8 173.5,282.5 136.3,266 C95.8,248.1 95.1,245.8 92.4,244.3 C128,167.9 162.5,101.9 186.3,69.7 Z M91.6,254.8 C92.2,253 94.4,252.8 98,254.8 C106,259.1 135.2,272.5 154.7,280.9 C162.4,284.1 157.8,290.4 148.2,293.1 C138.6,295.8 117.1,301.6 99.2,309.8 C86.7,315.4 84.8,312.2 84.4,309.8 C79.2,282.2 89.8,260 91.6,254.8 Z" id="Shape" fill="url(#linearGradient-2)" fill-rule="nonzero"></path>
            </g>
        </g>
    </g>
</svg>