<?xml version="1.0" encoding="UTF-8"?>
<svg width="845px" height="335px" viewBox="0 0 845 335" version="1.1" xmlns="http://www.w3.org/2000/svg" xmlns:xlink="http://www.w3.org/1999/xlink">
    <title>datasketches-HorizontalColor-TM</title>
    <defs>
        <linearGradient x1="-112.024291%" y1="-84.3319838%" x2="285.668016%" y2="245.769231%" id="linearGradient-1">
            <stop stop-color="#C70000" offset="0%"></stop>
            <stop stop-color="#FFA017" offset="0%"></stop>
            <stop stop-color="#C70000" offset="100%"></stop>
        </linearGradient>
        <linearGradient x1="-112.024291%" y1="-84.3319838%" x2="285.668016%" y2="245.769231%" id="linearGradient-2">
            <stop stop-color="#FFFFFF" offset="0%"></stop>
            <stop stop-color="#FFFFFF" offset="0%"></stop>
            <stop stop-color="#FFFFFF" offset="100%"></stop>
        </linearGradient>
        <linearGradient x1="30.6029616%" y1="17.9793032%" x2="73.1668191%" y2="66.9161871%" id="linearGradient-3">
            <stop stop-color="#C70000" offset="0%"></stop>
            <stop stop-color="#FFA017" offset="0%"></stop>
            <stop stop-color="#C90501" offset="71%"></stop>
            <stop stop-color="#4D0000" offset="100%"></stop>
        </linearGradient>
        <linearGradient x1="30.6029616%" y1="17.9793032%" x2="73.1668191%" y2="66.9161871%" id="linearGradient-4">
            <stop stop-color="#FFFFFF" offset="0%"></stop>
            <stop stop-color="#FFFFFF" offset="0%"></stop>
            <stop stop-color="#FFFFFF" offset="71%"></stop>
            <stop stop-color="#FFFFFF" offset="100%"></stop>
        </linearGradient>
        <linearGradient x1="-5.83644355%" y1="73.3288948%" x2="272.308914%" y2="-41.2250333%" id="linearGradient-5">
            <stop stop-color="#C70000" offset="0%"></stop>
            <stop stop-color="#FFA017" offset="0%"></stop>
            <stop stop-color="#C90501" offset="71%"></stop>
            <stop stop-color="#4D0000" offset="100%"></stop>
        </linearGradient>
        <linearGradient x1="-5.83644355%" y1="73.3288948%" x2="272.308914%" y2="-41.2250333%" id="linearGradient-6">
            <stop stop-color="#FFFFFF" offset="0%"></stop>
            <stop stop-color="#FFFFFF" offset="0%"></stop>
            <stop stop-color="#FFFFFF" offset="71%"></stop>
            <stop stop-color="#FFFFFF" offset="100%"></stop>
        </linearGradient>
        <linearGradient x1="-45.1634786%" y1="98.6168741%" x2="187.561432%" y2="-20.373444%" id="linearGradient-7">
            <stop stop-color="#C70000" offset="0%"></stop>
            <stop stop-color="#FFA017" offset="0%"></stop>
            <stop stop-color="#C90501" offset="71%"></stop>
            <stop stop-color="#4D0000" offset="100%"></stop>
        </linearGradient>
        <linearGradient x1="-45.1634786%" y1="98.6168741%" x2="187.561432%" y2="-20.373444%" id="linearGradient-8">
            <stop stop-color="#FFFFFF" offset="0%"></stop>
            <stop stop-color="#FFFFFF" offset="0%"></stop>
            <stop stop-color="#FFFFFF" offset="71%"></stop>
            <stop stop-color="#FFFFFF" offset="100%"></stop>
        </linearGradient>
        <linearGradient x1="-199.247149%" y1="138.70674%" x2="243.927956%" y2="-17.996357%" id="linearGradient-9">
            <stop stop-color="#C70000" offset="0%"></stop>
            <stop stop-color="#FFA017" offset="0%"></stop>
            <stop stop-color="#C90501" offset="71%"></stop>
            <stop stop-color="#4D0000" offset="100%"></stop>
        </linearGradient>
        <linearGradient x1="-199.247149%" y1="138.70674%" x2="243.927956%" y2="-17.996357%" id="linearGradient-10">
            <stop stop-color="#FFFFFF" offset="0%"></stop>
            <stop stop-color="#FFFFFF" offset="0%"></stop>
            <stop stop-color="#FFFFFF" offset="71%"></stop>
            <stop stop-color="#FFFFFF" offset="100%"></stop>
        </linearGradient>
        <linearGradient x1="-64.0671078%" y1="140.608696%" x2="94.7068053%" y2="15.9275362%" id="linearGradient-11">
            <stop stop-color="#C70000" offset="0%"></stop>
            <stop stop-color="#FFA017" offset="0%"></stop>
            <stop stop-color="#C90501" offset="71%"></stop>
            <stop stop-color="#4D0000" offset="100%"></stop>
        </linearGradient>
        <linearGradient x1="-64.0671078%" y1="140.608696%" x2="94.7068053%" y2="15.9275362%" id="linearGradient-12">
            <stop stop-color="#FFFFFF" offset="0%"></stop>
            <stop stop-color="#FFFFFF" offset="0%"></stop>
            <stop stop-color="#FFFFFF" offset="71%"></stop>
            <stop stop-color="#FFFFFF" offset="100%"></stop>
        </linearGradient>
        <linearGradient x1="-320.94648%" y1="185.409836%" x2="111.441402%" y2="28.7067395%" id="linearGradient-13">
            <stop stop-color="#C70000" offset="0%"></stop>
            <stop stop-color="#FFA017" offset="0%"></stop>
            <stop stop-color="#C90501" offset="71%"></stop>
            <stop stop-color="#4D0000" offset="100%"></stop>
        </linearGradient>
        <linearGradient x1="-320.94648%" y1="185.409836%" x2="111.441402%" y2="28.7067395%" id="linearGradient-14">
            <stop stop-color="#FFFFFF" offset="0%"></stop>
            <stop stop-color="#FFFFFF" offset="0%"></stop>
            <stop stop-color="#FFFFFF" offset="71%"></stop>
            <stop stop-color="#FFFFFF" offset="100%"></stop>
        </linearGradient>
        <linearGradient x1="-186.905854%" y1="175.283541%" x2="38.044283%" y2="56.2932227%" id="linearGradient-15">
            <stop stop-color="#C70000" offset="0%"></stop>
            <stop stop-color="#FFA017" offset="0%"></stop>
            <stop stop-color="#C90501" offset="71%"></stop>
            <stop stop-color="#4D0000" offset="100%"></stop>
        </linearGradient>
        <linearGradient x1="-186.905854%" y1="175.283541%" x2="38.044283%" y2="56.2932227%" id="linearGradient-16">
            <stop stop-color="#FFFFFF" offset="0%"></stop>
            <stop stop-color="#FFFFFF" offset="0%"></stop>
            <stop stop-color="#FFFFFF" offset="71%"></stop>
            <stop stop-color="#FFFFFF" offset="100%"></stop>
        </linearGradient>
        <linearGradient x1="-494.490032%" y1="243.096539%" x2="-51.314926%" y2="86.3934426%" id="linearGradient-17">
            <stop stop-color="#C70000" offset="0%"></stop>
            <stop stop-color="#FFA017" offset="0%"></stop>
            <stop stop-color="#C90501" offset="71%"></stop>
            <stop stop-color="#4D0000" offset="100%"></stop>
        </linearGradient>
        <linearGradient x1="-494.490032%" y1="243.096539%" x2="-51.314926%" y2="86.3934426%" id="linearGradient-18">
            <stop stop-color="#FFFFFF" offset="0%"></stop>
            <stop stop-color="#FFFFFF" offset="0%"></stop>
            <stop stop-color="#FFFFFF" offset="71%"></stop>
            <stop stop-color="#FFFFFF" offset="100%"></stop>
        </linearGradient>
        <linearGradient x1="-510.185899%" y1="270.728597%" x2="-111.957558%" y2="114.025501%" id="linearGradient-19">
            <stop stop-color="#C70000" offset="0%"></stop>
            <stop stop-color="#FFA017" offset="0%"></stop>
            <stop stop-color="#C90501" offset="71%"></stop>
            <stop stop-color="#4D0000" offset="100%"></stop>
        </linearGradient>
        <linearGradient x1="-510.185899%" y1="270.728597%" x2="-111.957558%" y2="114.025501%" id="linearGradient-20">
            <stop stop-color="#FFFFFF" offset="0%"></stop>
            <stop stop-color="#FFFFFF" offset="0%"></stop>
            <stop stop-color="#FFFFFF" offset="71%"></stop>
            <stop stop-color="#FFFFFF" offset="100%"></stop>
        </linearGradient>
    </defs>
    <g id="Page-1" stroke="none" stroke-width="1" fill="none" fill-rule="evenodd">
        <g id="datasketches-HorizontalColor-TM" fill-rule="nonzero">
            <g id="datasketches-HorizontalColor-1">
                <g id="Group">
                    <circle id="Oval" fill="url(#linearGradient-2)" cx="82.7" cy="161.4" r="24.7"></circle>
                    <path d="M188.1,70.5 C204.8,48 233.1,10.1 240.9,0.9 C240.9,0.7 222.7,6.3 222.7,6.3 C222.7,6.3 193.4,47.7 174.2,80.9 C155,114.1 139.4,141.4 101.2,219 C90.8,240 79,235.3 62.9,220.8 C46.8,206.3 8.2,169.7 8.2,145 C8.2,115.6 30.1,108.5 45.8,105.4 C54.6,103.6 57.9,106.6 57.9,108.9 C57.9,111.2 48.9,114.1 41.6,112.1 C39.5,111.5 43.6,117.2 52.9,117.2 C58.8,117.2 70.5,114.4 70.5,108.6 C70.5,105.1 67.2,100.8 54.5,100.8 C45.3,100.8 28.3,105.8 19.5,111.1 C10.7,116.4 0.3,125.2 0.3,138.3 C0.3,178.3 79.9,241.8 88.8,247.4 C88.8,247.2 75.4,285.7 75.4,306.8 C75.4,322.1 77.8,333 78.3,334.1 C78.8,335.2 106,313.5 129.9,306.3 C153.8,299.1 176.7,292.2 222.7,292.4 C222.7,292.4 175.3,285.1 137.7,268.5 C96.9,250.4 96.2,248 93.4,246.6 C129.4,169.5 164.1,103 188.1,70.5 Z M92.7,257.2 C93.3,255.4 95.4,255.1 99.1,257.1 C107.1,261.5 136.6,275 156.3,283.4 C164,286.7 159.4,293 149.7,295.8 C140,298.6 118.4,304.4 100.3,312.6 C87.7,318.3 85.8,315 85.4,312.6 C80.1,284.8 90.8,262.4 92.7,257.2 Z" id="Shape" fill="url(#linearGradient-4)"></path>
                </g>
                <g id="Group" transform="translate(194.000000, 172.000000)">
                    <path d="M0.6,2.1 L27.3,2.1 C48.9,2.1 59.6,16.8 59.6,38.5 C59.6,60.2 48.3,74.4 26.6,74.4 L0.6,74.4 L0.6,2.1 Z M26.2,65.7 C42.6,65.7 49.3,55.1 49.3,38.5 C49.3,21.9 43.3,10.7 26.8,10.7 L10.6,10.7 L10.6,65.7 L26.2,65.7 Z" id="Shape" fill="#FFFFFF"></path>
                    <path d="M67.4,60.6 C67.4,48.4 76.3,45.8 89.8,44.1 C97.5,43.3 102.4,42 102.4,36.7 C102.4,31.4 98.5,27.5 91.3,27.5 C84.1,27.5 79,31.4 78.7,37.6 L70,37.6 C70.4,28.8 77.1,20.9 91.2,20.9 C96.1,20.9 100.5,21.8 103.8,23.7 C107.1,25.6 110.8,30.9 110.8,37.9 L110.8,62.3 C110.8,66.5 111.8,68.7 116.3,67.8 L116.7,67.8 L116.7,74.1 C115.15697,74.6370383 113.533798,74.9075669 111.9,74.9 C106.3,74.9 103.6,72.2 102.6,66.7 L102.5,66.7 C99.2,71.3 93.9,75.4 85,75.4 C76.1,75.4 67.4,70.6 67.4,60.6 Z M102.5,55.1 L102.5,46.6 C99.9,48.2 95.4,49.5 91.1,50.3 C82.5,51.7 76.9,53.3 76.9,60.5 C76.9,67.7 82,68.8 87.3,68.8 C97.7,68.8 102.5,61.2 102.5,55.1 Z" id="Shape" fill="#FFFFFF"></path>
                    <path d="M119.9,22.2 L128.1,22.2 L128.1,5.8 L137,5.8 L137,22.2 L147.8,22.2 L147.8,29.2 L137,29.2 L137,62.1 C137,65.9 139.1,67 142.4,67 C143.955864,66.9520573 145.500302,66.7170339 147,66.3 L147.3,66.3 L147.3,73.9 C144.909832,74.4822401 142.460012,74.7842727 140,74.8 C133,74.7 128.1,71.9 128.1,64.2 L128.1,29.2 L119.9,29.2 L119.9,22.2 Z" id="Path" fill="#FFFFFF"></path>
                    <path d="M155.1,60.6 C155.1,48.4 164.1,45.8 177.6,44.1 C185.3,43.3 190.2,42 190.2,36.7 C190.2,31.4 186.2,27.5 179,27.5 C171.8,27.5 166.8,31.4 166.5,37.6 L157.7,37.6 C158.1,28.8 164.8,20.9 178.9,20.9 C183.9,20.9 188.3,21.8 191.6,23.7 C194.9,25.6 198.6,30.9 198.6,37.9 L198.6,62.3 C198.6,66.5 199.5,68.7 204.1,67.8 L204.5,67.8 L204.5,74.1 C202.921995,74.6351992 201.266286,74.905519 199.6,74.9 C194.1,74.9 191.4,72.2 190.4,66.7 L190.3,66.7 C187,71.3 181.7,75.4 172.8,75.4 C163.9,75.4 155.1,70.6 155.1,60.6 Z M190.3,55.1 L190.3,46.6 C187.7,48.2 183.1,49.5 178.8,50.3 C170.3,51.7 164.7,53.3 164.7,60.5 C164.7,67.7 169.8,68.8 175.1,68.8 C185.5,68.8 190.3,61.2 190.3,55.1 Z" id="Shape" fill="#FFFFFF"></path>
                    <path d="M208.7,51 L218.5,51 C219.7,61.8 226.9,67.9 240,67.9 C249.6,67.9 256.6,63.6 256.6,54.8 C256.6,46 248.2,43.2 235.6,40.4 C223,37.6 211.7,33.9 211.7,20 C211.7,7.9 221.9,0.7 236.8,0.7 C254.6,0.7 262.5,9.6 264.3,22 L254.7,22 C253.4,13.2 247.1,8.5 236.9,8.5 C226.7,8.5 221.1,12.4 221.1,19.6 C221.1,26.8 229,29.7 239.9,31.9 C253.9,34.7 266.6,38.3 266.6,54.5 C266.6,68.2 255.3,75.8 239.7,75.8 C219.5,75.8 209.5,64.8 208.7,51 Z" id="Path" fill="url(#linearGradient-6)"></path>
                    <path d="M293.6,46.9 L286.2,53.9 L286.2,74.4 L277.2,74.4 L277.2,2.1 L286.2,2.1 L286.2,36.4 C286.2,38.2 286,41.9 285.9,44.4 L308.5,22.2 L319.8,22.2 L299.9,40.9 L322.1,74.4 L311.5,74.4 L293.6,46.9 Z" id="Path" fill="url(#linearGradient-8)"></path>
                    <path d="M324.1,48.3 C324.1,33.2 334.2,20.9 349.1,20.9 C356.9,20.9 362.9,23.9 367,29 C371.1,34.1 373.4,41.6 373.4,50.5 L333.4,50.5 C334.1,60.7 339.6,68.4 349.7,68.4 C356.9,68.4 361.9,65 363.5,59.5 L372.4,59.5 C370,69.2 361.7,75.8 349.6,75.8 C333.6,75.8 324.1,63.6 324.1,48.3 Z M333.6,44 L363.8,44 C363.3,33.9 358.2,27.9 349.1,27.9 C340,27.9 334.7,34.7 333.6,44 Z" id="Shape" fill="url(#linearGradient-10)"></path>
                    <path d="M378.9,22.2 L387,22.2 L387,5.8 L396,5.8 L396,22.2 L406.8,22.2 L406.8,29.2 L396,29.2 L396,62.1 C396,65.9 398,67 401.3,67 C402.856589,66.9601311 404.402012,66.7249581 405.9,66.3 L406.2,66.3 L406.2,73.9 C403.811005,74.4886345 401.360427,74.7907605 398.9,74.8 C391.9,74.7 387,71.9 387,64.2 L387,29.2 L378.9,29.2 L378.9,22.2 Z" id="Path" fill="url(#linearGradient-12)"></path>
                    <path d="M412.9,48.3 C412.9,33.2 422.7,20.9 438.4,20.9 C450.9,20.9 459.1,28 460.9,39.2 L451.9,39.2 C450.6,32.4 445.9,28.2 438.4,28.2 C427.7,28.2 422.1,37.1 422.1,48.3 C422.1,59.5 427.7,68.4 438.4,68.4 C446.5,68.4 451.4,63.7 452.1,55.9 L461,55.9 C459.8,68.4 451.6,75.8 438.4,75.8 C422.7,75.8 412.9,63.6 412.9,48.3 Z" id="Path" fill="url(#linearGradient-14)"></path>
                    <path d="M478.9,29.8 L479.2,29.8 C483.1,24.2 488.3,20.9 495.9,20.9 C506.8,20.9 513.5,27 513.5,37.9 L513.5,74.4 L504.5,74.4 L504.5,39 C504.5,32.3 500.2,28.5 493.1,28.5 C486,28.5 479.2,34.2 479.2,42.6 L479.2,74.4 L470.1,74.4 L470.1,2.1 L479.2,2.1 L479.2,21 C479.2,23.6 479,27.2 478.9,29.8 Z" id="Path" fill="url(#linearGradient-16)"></path>
                    <path d="M522.8,48.3 C522.8,33.2 532.8,20.9 547.8,20.9 C555.6,20.9 561.6,23.9 565.7,29 C569.8,34.1 572.1,41.6 572.1,50.5 L532.1,50.5 C532.7,60.7 538.3,68.4 548.4,68.4 C555.6,68.4 560.5,65 562.2,59.5 L571,59.5 C568.7,69.2 560.3,75.8 548.3,75.8 C532.2,75.8 522.8,63.6 522.8,48.3 Z M532.2,44 L562.5,44 C562,33.9 556.8,27.9 547.8,27.9 C538.8,27.9 533.4,34.7 532.2,44 L532.2,44 Z" id="Shape" fill="url(#linearGradient-18)"></path>
                    <path d="M578.4,58.5 L587.6,58.5 C588.6,66.1 594.5,68.6 601.9,68.6 C609.3,68.6 613.7,65 613.7,60.4 C613.7,55.8 609.3,53.2 600.1,51.3 C590.9,49.4 580.7,47.1 580.7,35.6 C580.7,26.7 587.6,21 599.8,21 C612,21 619.4,27.1 620.6,36.2 L611.6,36.2 C610.8,30.8 607.1,27.8 599.6,27.8 C592.1,27.8 589.5,31.1 589.5,35.1 C589.5,40.6 594.6,41.6 603.4,43.4 C613.8,45.4 622.7,47.7 622.7,59.9 C622.7,70.5 614,75.9 601.7,75.9 C587.4,75.9 579.2,69.1 578.4,58.5 Z" id="Path" fill="url(#linearGradient-20)"></path>
                </g>
                <g id="Group" transform="translate(224.000000, 124.000000)" fill="#FFFFFF">
                    <path d="M13.5,0.7 L20.4,0.7 L33,35.4 L26.1,35.4 L23.4,27.1 L10.2,27.1 L7.4,35.4 L0.9,35.4 L13.5,0.7 Z M11.8,22.4 L21.8,22.4 L19.1,14.3 C17.8,10.2 16.9,6 16.9,6 L16.9,6 C16.9,6 15.7,11 14.6,14.3 L11.8,22.4 Z" id="Shape"></path>
                    <path d="M36.4,10.5 L42.2,10.5 L42.2,14.2 L42.3,14.2 C43.8710069,11.3885126 46.8812237,9.69044155 50.1,9.8 C56.6,9.8 60.8,15 60.8,23 C60.8,31 56.6,36.2 49.9,36.2 C46.8392413,36.2971449 43.9528047,34.7779677 42.3,32.2 L42.2,32.2 C42.3515306,33.8287642 42.4182874,35.4643045 42.4,37.1 L42.4,43.7 L36.4,43.7 L36.4,10.5 Z M54.8,23.1 C54.8,18.2 52.8,14.6 48.7,14.6 C44.6,14.6 42.1,18.4 42.1,23.1 C42.1,27.8 44.2,31.5 48.8,31.5 C53.4,31.5 54.8,28 54.8,23.1 L54.8,23.1 Z" id="Shape"></path>
                    <path d="M80.3,32.2 L80.2,32.2 C78.3905203,34.7351814 75.410124,36.1687897 72.3,36 C67.5,36 63.8,33.5 63.8,28.6 C63.8,23.7 68.1,21.6 74.1,20.9 C78.2,20.4 80.2,19.7 80.2,17.5 C80.2,15.3 78.7,13.9 75.7,13.9 C72.7,13.9 70.8,15.5 70.6,17.9 L65,17.9 C65.2,13.7 68.6,9.8 75.7,9.8 C78.5,9.8 80.7,10.2 82.4,11.3 C84.1,12.4 85.9,15 85.9,18.3 L85.9,31.5 C85.9,33.5 86.3,34.6 86.8,35 L86.8,35.4 L81.1,35.4 C80.5667911,34.4182359 80.2915282,33.3171843 80.3,32.2 Z M80.4,26.3 L80.4,22.6 C78.8722088,23.4344008 77.2162851,24.008905 75.5,24.3 C71.9,25 69.8,25.7 69.8,28.5 C69.8,31.3 71.8,31.9 74.1,31.9 C78.1,31.9 80.4,29.1 80.4,26.3 L80.4,26.3 Z" id="Shape"></path>
                    <path d="M90.1,23 C90.1,15.6 95,9.8 102.7,9.8 C110.4,9.8 113,13.4 113.9,18.8 L108.1,18.8 C107.739864,16.1263127 105.394799,14.1720917 102.7,14.3 C98.4,14.3 96.1,17.9 96.1,23 C96.1,28.1 98.4,31.5 102.7,31.5 C107,31.5 107.9,29.6 108.3,26.3 L114,26.3 C113.7,32.1 109.4,36.1 102.7,36.1 C96,36.1 90.1,30.3 90.1,23 Z" id="Path"></path>
                    <path d="M123.7,14.1 L123.9,14.1 C125.480425,11.3595352 128.437813,9.70800656 131.6,9.8 C136.9,9.8 140.2,13.1 140.2,18.5 L140.2,35.4 L134.2,35.4 L134.2,19.5 C134.2,16.5 132.5,14.7 129.5,14.7 C126.5,14.7 123.8,17.2 123.8,20.8 L123.8,35.4 L117.9,35.4 L117.9,0.7 L123.8,0.7 L123.8,10 C123.8,10.7 123.8,12.6 123.7,14.1 Z" id="Path"></path>
                    <path d="M144.1,23 C144.1,15.6 149.1,9.8 156.5,9.8 C159.731168,9.70612997 162.852646,10.9764991 165.1,13.3 C167.5,15.9 168.7,19.8 168.6,24.4 L150,24.4 C150.4,28.7 152.7,31.6 156.9,31.6 C161.1,31.6 161.6,30.4 162.4,28.3 L168.2,28.3 C166.9,32.8 162.9,36.1 156.8,36.1 C148.9,36.1 144.1,30.3 144.1,23 Z M150.1,20.7 L162.5,20.7 C162.3,16.6 160.1,14.1 156.5,14.1 C152.9,14.1 150.6,16.8 150.1,20.7 Z" id="Shape"></path>
                </g>
            </g>
            <text id="TM" fill="#FFFFFF" font-family="Helvetica-Bold, Helvetica" font-size="24" font-weight="bold">
                <tspan x="810" y="189">TM</tspan>
            </text>
            <text id="®" fill="#FFFFFF" font-family="Helvetica" font-size="24" font-weight="normal">
                <tspan x="395" y="134">®</tspan>
            </text>
        </g>
    </g>
</svg>