<svg id="Layer_1" data-name="Layer 1" xmlns="http://www.w3.org/2000/svg" width="850" height="357" viewBox="0 0 850 357">
  <title>ApacheDataSketch_HorizontalWhite-TM</title>
  <g id="Page-1">
    <g id="Man">
      <circle cx="93.7" cy="172.4" r="24.7" fill="#fff"/>
      <path d="M199.1,81.5c16.7-22.5,45-60.4,52.8-69.6,0-.2-18.2,5.4-18.2,5.4s-29.3,41.4-48.5,74.6-34.8,60.5-73,138.1c-10.4,21-22.2,16.3-38.3,1.8S19.2,180.7,19.2,156c0-29.4,21.9-36.5,37.6-39.6,8.8-1.8,12.1,1.2,12.1,3.5s-9,5.2-16.3,3.2c-2.1-.6,2,5.1,11.3,5.1,5.9,0,17.6-2.8,17.6-8.6,0-3.5-3.3-7.8-16-7.8-9.2,0-26.2,5-35,10.3s-19.2,14.1-19.2,27.2c0,40,79.6,103.5,88.5,109.1,0-.2-13.4,38.3-13.4,59.4,0,15.3,2.4,26.2,2.9,27.3s27.7-20.6,51.6-27.8,46.8-14.1,92.8-13.9c0,0-47.4-7.3-85-23.9-40.8-18.1-41.5-20.5-44.3-21.9C140.4,180.5,175.1,114,199.1,81.5ZM103.7,268.2c.6-1.8,2.7-2.1,6.4-.1,8,4.4,37.5,17.9,57.2,26.3,7.7,3.3,3.1,9.6-6.6,12.4s-31.3,8.6-49.4,16.8c-12.6,5.7-14.5,2.4-14.9,0C91.1,295.8,101.8,273.4,103.7,268.2Z" fill="#fff"/>
    </g>
    <g id="DataSketches">
      <path d="M205.6,185.1h26.7c21.6,0,32.3,14.7,32.3,36.4s-11.3,35.9-33,35.9h-26Zm25.6,63.6c16.4,0,23.1-10.6,23.1-27.2s-6-27.8-22.5-27.8H215.6v55Z" fill="#fff"/>
      <path d="M272.4,243.6c0-12.2,8.9-14.8,22.4-16.5,7.7-.8,12.6-2.1,12.6-7.4s-3.9-9.2-11.1-9.2-12.3,3.9-12.6,10.1H275c.4-8.8,7.1-16.7,21.2-16.7,4.9,0,9.3.9,12.6,2.8s7,7.2,7,14.2v24.4c0,4.2,1,6.4,5.5,5.5h.4v6.3a14.4,14.4,0,0,1-4.8.8c-5.6,0-8.3-2.7-9.3-8.2h-.1c-3.3,4.6-8.6,8.7-17.5,8.7S272.4,253.6,272.4,243.6Zm35.1-5.5v-8.5c-2.6,1.6-7.1,2.9-11.4,3.7-8.6,1.4-14.2,3-14.2,10.2s5.1,8.3,10.4,8.3C302.7,251.8,307.5,244.2,307.5,238.1Z" fill="#fff"/>
      <path d="M324.9,205.2h8.2V188.8H342v16.4h10.8v7H342v32.9c0,3.8,2.1,4.9,5.4,4.9a19.4,19.4,0,0,0,4.6-.7h.3v7.6a31.7,31.7,0,0,1-7.3.9c-7-.1-11.9-2.9-11.9-10.6v-35h-8.2Z" fill="#fff"/>
      <path d="M360.1,243.6c0-12.2,9-14.8,22.5-16.5,7.7-.8,12.6-2.1,12.6-7.4s-4-9.2-11.2-9.2-12.2,3.9-12.5,10.1h-8.8c.4-8.8,7.1-16.7,21.2-16.7,5,0,9.4.9,12.7,2.8s7,7.2,7,14.2v24.4c0,4.2.9,6.4,5.5,5.5h.4v6.3a15.1,15.1,0,0,1-4.9.8c-5.5,0-8.2-2.7-9.2-8.2h-.1c-3.3,4.6-8.6,8.7-17.5,8.7S360.1,253.6,360.1,243.6Zm35.2-5.5v-8.5c-2.6,1.6-7.2,2.9-11.5,3.7-8.5,1.4-14.1,3-14.1,10.2s5.1,8.3,10.4,8.3C390.5,251.8,395.3,244.2,395.3,238.1Z" fill="#fff"/>
      <path d="M413.7,234h9.8c1.2,10.8,8.4,16.9,21.5,16.9,9.6,0,16.6-4.3,16.6-13.1s-8.4-11.6-21-14.4-23.9-6.5-23.9-20.4c0-12.1,10.2-19.3,25.1-19.3,17.8,0,25.7,8.9,27.5,21.3h-9.6c-1.3-8.8-7.6-13.5-17.8-13.5s-15.8,3.9-15.8,11.1,7.9,10.1,18.8,12.3c14,2.8,26.7,6.4,26.7,22.6,0,13.7-11.3,21.3-26.9,21.3C424.5,258.8,414.5,247.8,413.7,234Z" fill="#fff"/>
      <path d="M498.6,229.9l-7.4,7v20.5h-9V185.1h9v34.3c0,1.8-.2,5.5-.3,8l22.6-22.2h11.3l-19.9,18.7,22.2,33.5H516.5Z" fill="#fff"/>
      <path d="M529.1,231.3c0-15.1,10.1-27.4,25-27.4,7.8,0,13.8,3,17.9,8.1s6.4,12.6,6.4,21.5h-40c.7,10.2,6.2,17.9,16.3,17.9,7.2,0,12.2-3.4,13.8-8.9h8.9c-2.4,9.7-10.7,16.3-22.8,16.3C538.6,258.8,529.1,246.6,529.1,231.3Zm9.5-4.3h30.2c-.5-10.1-5.6-16.1-14.7-16.1S539.7,217.7,538.6,227Z" fill="#fff"/>
      <path d="M583.9,205.2H592V188.8h9v16.4h10.8v7H601v32.9c0,3.8,2,4.9,5.3,4.9a18.6,18.6,0,0,0,4.6-.7h.3v7.6a31,31,0,0,1-7.3.9c-7-.1-11.9-2.9-11.9-10.6v-35h-8.1Z" fill="#fff"/>
      <path d="M617.9,231.3c0-15.1,9.8-27.4,25.5-27.4,12.5,0,20.7,7.1,22.5,18.3h-9c-1.3-6.8-6-11-13.5-11-10.7,0-16.3,8.9-16.3,20.1s5.6,20.1,16.3,20.1c8.1,0,13-4.7,13.7-12.5H666c-1.2,12.5-9.4,19.9-22.6,19.9C627.7,258.8,617.9,246.6,617.9,231.3Z" fill="#fff"/>
      <path d="M683.9,212.8h.3c3.9-5.6,9.1-8.9,16.7-8.9,10.9,0,17.6,6.1,17.6,17v36.5h-9V222c0-6.7-4.3-10.5-11.4-10.5s-13.9,5.7-13.9,14.1v31.8h-9.1V185.1h9.1V204C684.2,206.6,684,210.2,683.9,212.8Z" fill="#fff"/>
      <path d="M727.8,231.3c0-15.1,10-27.4,25-27.4,7.8,0,13.8,3,17.9,8.1s6.4,12.6,6.4,21.5h-40c.6,10.2,6.2,17.9,16.3,17.9,7.2,0,12.1-3.4,13.8-8.9H776c-2.3,9.7-10.7,16.3-22.7,16.3C737.2,258.8,727.8,246.6,727.8,231.3Zm9.4-4.3h30.3c-.5-10.1-5.7-16.1-14.7-16.1S738.4,217.7,737.2,227Z" fill="#fff"/>
      <path d="M783.4,241.5h9.2c1,7.6,6.9,10.1,14.3,10.1s11.8-3.6,11.8-8.2-4.4-7.2-13.6-9.1-19.4-4.2-19.4-15.7c0-8.9,6.9-14.6,19.1-14.6s19.6,6.1,20.8,15.2h-9c-.8-5.4-4.5-8.4-12-8.4s-10.1,3.3-10.1,7.3c0,5.5,5.1,6.5,13.9,8.3,10.4,2,19.3,4.3,19.3,16.5,0,10.6-8.7,16-21,16C792.4,258.9,784.2,252.1,783.4,241.5Z" fill="#fff"/>
    </g>
    <g id="Apache">
      <path d="M248.5,135.7h6.9L268,170.4h-6.9l-2.7-8.3H245.2l-2.8,8.3h-6.5Zm-1.7,21.7h10l-2.7-8.1c-1.3-4.1-2.2-8.3-2.2-8.3h0s-1.2,5-2.3,8.3Z" fill="#fff"/>
      <path d="M271.4,145.5h5.8v3.7h.1a8.6,8.6,0,0,1,7.8-4.4c6.5,0,10.7,5.2,10.7,13.2s-4.2,13.2-10.9,13.2a8.7,8.7,0,0,1-7.6-4h-.1a47.2,47.2,0,0,1,.2,4.9v6.6h-6Zm18.4,12.6c0-4.9-2-8.5-6.1-8.5s-6.6,3.8-6.6,8.5,2.1,8.4,6.7,8.4S289.8,163,289.8,158.1Z" fill="#fff"/>
      <path d="M315.3,167.2h-.1a9.1,9.1,0,0,1-7.9,3.8c-4.8,0-8.5-2.5-8.5-7.4s4.3-7,10.3-7.7c4.1-.5,6.1-1.2,6.1-3.4s-1.5-3.6-4.5-3.6-4.9,1.6-5.1,4H300c.2-4.2,3.6-8.1,10.7-8.1,2.8,0,5,.4,6.7,1.5s3.5,3.7,3.5,7v13.2c0,2,.4,3.1.9,3.5v.4h-5.7A6.6,6.6,0,0,1,315.3,167.2Zm.1-5.9v-3.7a15.7,15.7,0,0,1-4.9,1.7c-3.6.7-5.7,1.4-5.7,4.2s2,3.4,4.3,3.4C313.1,166.9,315.4,164.1,315.4,161.3Z" fill="#fff"/>
      <path d="M325.1,158c0-7.4,4.9-13.2,12.6-13.2s10.3,3.6,11.2,9h-5.8a5.2,5.2,0,0,0-5.4-4.5c-4.3,0-6.6,3.6-6.6,8.7s2.3,8.5,6.6,8.5,5.2-1.9,5.6-5.2H349c-.3,5.8-4.6,9.8-11.3,9.8S325.1,165.3,325.1,158Z" fill="#fff"/>
      <path d="M358.7,149.1h.2a8.6,8.6,0,0,1,7.7-4.3c5.3,0,8.6,3.3,8.6,8.7v16.9h-6V154.5c0-3-1.7-4.8-4.7-4.8s-5.7,2.5-5.7,6.1v14.6h-5.9V135.7h5.9V145C358.8,145.7,358.8,147.6,358.7,149.1Z" fill="#fff"/>
      <path d="M379.1,158c0-7.4,5-13.2,12.4-13.2a11.5,11.5,0,0,1,8.6,3.5c2.4,2.6,3.6,6.5,3.5,11.1H385c.4,4.3,2.7,7.2,6.9,7.2s4.7-1.2,5.5-3.3h5.8c-1.3,4.5-5.3,7.8-11.4,7.8C383.9,171.1,379.1,165.3,379.1,158Zm6-2.3h12.4c-.2-4.1-2.4-6.6-6-6.6S385.6,151.8,385.1,155.7Z" fill="#fff"/>
    </g>
    <text id="TM" font-family="Helvetica-Bold, Helvetica" font-size="24" font-weight="bold" fill="#FFFFFF">
        <tspan x="810" y="189">TM</tspan>
    </text>
    <text id="®" font-family="Helvetica" font-size="24" font-weight="bold" fill="#FFFFFF">
        <tspan x="395" y="134">®</tspan>
    </text>
  </g>
</svg>
