<?xml version="1.0" encoding="UTF-8"?>
<svg width="458px" height="406px" viewBox="0 0 458 406" version="1.1" xmlns="http://www.w3.org/2000/svg" xmlns:xlink="http://www.w3.org/1999/xlink">
    <title>datasketches-VerticalColor</title>
    <defs>
        <linearGradient x1="-111.918367%" y1="-84.4285714%" x2="285.693878%" y2="245.612245%" id="linearGradient-1">
            <stop stop-color="#C62026" offset="0%"></stop>
            <stop stop-color="#F9A01F" offset="0%"></stop>
            <stop stop-color="#C62026" offset="100%"></stop>
        </linearGradient>
        <linearGradient x1="-111.918367%" y1="-84.4285714%" x2="285.693878%" y2="245.612245%" id="linearGradient-2">
            <stop stop-color="#FFFFFF" offset="0%"></stop>
            <stop stop-color="#FFFFFF" offset="0%"></stop>
            <stop stop-color="#FFFFFF" offset="100%"></stop>
        </linearGradient>
        <linearGradient x1="30.6058804%" y1="17.9758561%" x2="73.1741812%" y2="66.9148346%" id="linearGradient-3">
            <stop stop-color="#C62026" offset="0%"></stop>
            <stop stop-color="#F9A01F" offset="0%"></stop>
            <stop stop-color="#C82027" offset="71%"></stop>
            <stop stop-color="#481211" offset="100%"></stop>
        </linearGradient>
        <linearGradient x1="30.6058804%" y1="17.9758561%" x2="73.1741812%" y2="66.9148346%" id="linearGradient-4">
            <stop stop-color="#FFFFFF" offset="0%"></stop>
            <stop stop-color="#FFFFFF" offset="0%"></stop>
            <stop stop-color="#FFFFFF" offset="71%"></stop>
            <stop stop-color="#FFFFFF" offset="100%"></stop>
        </linearGradient>
        <linearGradient x1="8.00031038%" y1="69.0466926%" x2="319.894964%" y2="-69.688716%" id="linearGradient-5">
            <stop stop-color="#C62026" offset="0%"></stop>
            <stop stop-color="#F9A01F" offset="0%"></stop>
            <stop stop-color="#C82027" offset="71%"></stop>
            <stop stop-color="#481211" offset="100%"></stop>
        </linearGradient>
        <linearGradient x1="8.00031038%" y1="69.0466926%" x2="319.894964%" y2="-69.688716%" id="linearGradient-6">
            <stop stop-color="#FFFFFF" offset="0%"></stop>
            <stop stop-color="#FFFFFF" offset="0%"></stop>
            <stop stop-color="#FFFFFF" offset="71%"></stop>
            <stop stop-color="#FFFFFF" offset="100%"></stop>
        </linearGradient>
        <linearGradient x1="-33.0635241%" y1="95.8787879%" x2="227.842424%" y2="-48.1818182%" id="linearGradient-7">
            <stop stop-color="#C62026" offset="0%"></stop>
            <stop stop-color="#F9A01F" offset="0%"></stop>
            <stop stop-color="#C82027" offset="71%"></stop>
            <stop stop-color="#481211" offset="100%"></stop>
        </linearGradient>
        <linearGradient x1="-33.0635241%" y1="95.8787879%" x2="227.842424%" y2="-48.1818182%" id="linearGradient-8">
            <stop stop-color="#FFFFFF" offset="0%"></stop>
            <stop stop-color="#FFFFFF" offset="0%"></stop>
            <stop stop-color="#FFFFFF" offset="71%"></stop>
            <stop stop-color="#FFFFFF" offset="100%"></stop>
        </linearGradient>
        <linearGradient x1="-173.903006%" y1="136.481653%" x2="320.651723%" y2="-53.1325367%" id="linearGradient-9">
            <stop stop-color="#C62026" offset="0%"></stop>
            <stop stop-color="#F9A01F" offset="0%"></stop>
            <stop stop-color="#C82027" offset="71%"></stop>
            <stop stop-color="#481211" offset="100%"></stop>
        </linearGradient>
        <linearGradient x1="-173.903006%" y1="136.481653%" x2="320.651723%" y2="-53.1325367%" id="linearGradient-10">
            <stop stop-color="#FFFFFF" offset="0%"></stop>
            <stop stop-color="#FFFFFF" offset="0%"></stop>
            <stop stop-color="#FFFFFF" offset="71%"></stop>
            <stop stop-color="#FFFFFF" offset="100%"></stop>
        </linearGradient>
        <linearGradient x1="-55.1529306%" y1="140.295983%" x2="122.979721%" y2="-10.4651163%" id="linearGradient-11">
            <stop stop-color="#C62026" offset="0%"></stop>
            <stop stop-color="#F9A01F" offset="0%"></stop>
            <stop stop-color="#C82027" offset="71%"></stop>
            <stop stop-color="#481211" offset="100%"></stop>
        </linearGradient>
        <linearGradient x1="-55.1529306%" y1="140.295983%" x2="122.979721%" y2="-10.4651163%" id="linearGradient-12">
            <stop stop-color="#FFFFFF" offset="0%"></stop>
            <stop stop-color="#FFFFFF" offset="0%"></stop>
            <stop stop-color="#FFFFFF" offset="71%"></stop>
            <stop stop-color="#FFFFFF" offset="100%"></stop>
        </linearGradient>
        <linearGradient x1="-294.275266%" y1="186.25%" x2="188.743351%" y2="-3.40425532%" id="linearGradient-13">
            <stop stop-color="#C62026" offset="0%"></stop>
            <stop stop-color="#F9A01F" offset="0%"></stop>
            <stop stop-color="#C82027" offset="71%"></stop>
            <stop stop-color="#481211" offset="100%"></stop>
        </linearGradient>
        <linearGradient x1="-294.275266%" y1="186.25%" x2="188.743351%" y2="-3.40425532%" id="linearGradient-14">
            <stop stop-color="#FFFFFF" offset="0%"></stop>
            <stop stop-color="#FFFFFF" offset="0%"></stop>
            <stop stop-color="#FFFFFF" offset="71%"></stop>
            <stop stop-color="#FFFFFF" offset="100%"></stop>
        </linearGradient>
        <linearGradient x1="-172.824242%" y1="177.616162%" x2="78.7636364%" y2="33.5555556%" id="linearGradient-15">
            <stop stop-color="#C62026" offset="0%"></stop>
            <stop stop-color="#F9A01F" offset="0%"></stop>
            <stop stop-color="#C82027" offset="71%"></stop>
            <stop stop-color="#481211" offset="100%"></stop>
        </linearGradient>
        <linearGradient x1="-172.824242%" y1="177.616162%" x2="78.7636364%" y2="33.5555556%" id="linearGradient-16">
            <stop stop-color="#FFFFFF" offset="0%"></stop>
            <stop stop-color="#FFFFFF" offset="0%"></stop>
            <stop stop-color="#FFFFFF" offset="71%"></stop>
            <stop stop-color="#FFFFFF" offset="100%"></stop>
        </linearGradient>
        <linearGradient x1="-463.949967%" y1="247.708151%" x2="30.6047625%" y2="58.0939611%" id="linearGradient-17">
            <stop stop-color="#C62026" offset="0%"></stop>
            <stop stop-color="#F9A01F" offset="0%"></stop>
            <stop stop-color="#C82027" offset="71%"></stop>
            <stop stop-color="#481211" offset="100%"></stop>
        </linearGradient>
        <linearGradient x1="-463.949967%" y1="247.708151%" x2="30.6047625%" y2="58.0939611%" id="linearGradient-18">
            <stop stop-color="#FFFFFF" offset="0%"></stop>
            <stop stop-color="#FFFFFF" offset="0%"></stop>
            <stop stop-color="#FFFFFF" offset="71%"></stop>
            <stop stop-color="#FFFFFF" offset="100%"></stop>
        </linearGradient>
        <linearGradient x1="-482.097456%" y1="277.101064%" x2="-37.2505234%" y2="87.4468085%" id="linearGradient-19">
            <stop stop-color="#C62026" offset="0%"></stop>
            <stop stop-color="#F9A01F" offset="0%"></stop>
            <stop stop-color="#C82027" offset="71%"></stop>
            <stop stop-color="#481211" offset="100%"></stop>
        </linearGradient>
        <linearGradient x1="-482.097456%" y1="277.101064%" x2="-37.2505234%" y2="87.4468085%" id="linearGradient-20">
            <stop stop-color="#FFFFFF" offset="0%"></stop>
            <stop stop-color="#FFFFFF" offset="0%"></stop>
            <stop stop-color="#FFFFFF" offset="71%"></stop>
            <stop stop-color="#FFFFFF" offset="100%"></stop>
        </linearGradient>
    </defs>
    <g id="Page-1" stroke="none" stroke-width="1" fill="none" fill-rule="evenodd">
        <g id="datasketches-VerticalColor-2" fill-rule="nonzero">
            <g id="Group" transform="translate(87.000000, 0.000000)">
                <circle id="Oval" fill="url(#linearGradient-2)" cx="81.7" cy="159.9" r="24.5"></circle>
                <path d="M186.3,69.7 C202.8,47.3 230.9,9.8 238.6,0.7 C238.6,0.4 220.6,6 220.6,6 C220.6,6 191.5,47 172.5,80 C153.5,113 138,140 100.1,217 C89.8,237.8 78,233.2 62.1,218.7 C46.2,204.2 7.9,168.1 7.9,143.5 C7.9,114.4 29.6,107.4 45.1,104.3 C53.9,102.5 57.2,105.5 57.2,107.8 C57.2,110.1 48.2,113 41,110.9 C38.9,110.3 43,116 52.2,116 C58,116 69.6,113.3 69.6,107.4 C69.6,104 66.4,99.7 53.8,99.7 C44.6,99.7 27.8,104.7 19.1,109.9 C10.4,115.1 0,124 0,136.9 C0,176.6 78.9,239.6 87.8,245.1 C87.8,245 74.5,283.1 74.5,304.1 C74.5,319.2 76.9,330 77.4,331.1 C77.9,332.2 104.8,310.7 128.5,303.5 C152.2,296.3 175,289.5 220.6,289.8 C220.6,289.8 173.5,282.5 136.3,266 C95.8,248.1 95.1,245.8 92.4,244.3 C128,167.9 162.5,101.9 186.3,69.7 Z M91.6,254.8 C92.2,253 94.4,252.8 98,254.8 C106,259.1 135.2,272.5 154.7,280.9 C162.4,284.1 157.8,290.4 148.2,293.1 C138.6,295.8 117.1,301.6 99.2,309.8 C86.7,315.4 84.8,312.2 84.4,309.8 C79.2,282.2 89.8,260 91.6,254.8 Z" id="Shape" fill="url(#linearGradient-4)"></path>
            </g>
            <g id="Group" transform="translate(0.000000, 320.000000)">
                <g transform="translate(0.000000, 33.000000)">
                    <path d="M0.9,1.7 L19.2,1.7 C34,1.7 41.3,11.8 41.3,26.7 C41.3,41.6 33.6,51.2 18.7,51.2 L0.9,51.2 L0.9,1.7 Z M18.4,45.3 C29.6,45.3 34.2,38.1 34.2,26.7 C34.2,15.3 30.1,7.6 18.8,7.6 L7.7,7.6 L7.7,45.3 L18.4,45.3 Z" id="Shape" fill="#FFFFFF"></path>
                    <path d="M46.6,41.8 C46.6,33.5 52.7,31.7 62,30.5 C67.3,29.9 70.7,29.1 70.7,25.4 C70.7,21.7 67.9,19.1 63,19.1 C58.1,19.1 54.6,21.8 54.4,26.1 L48.4,26.1 C48.7,20 53.3,14.6 62.9,14.6 C65.9141409,14.4859749 68.9078234,15.1397676 71.6,16.5 C74.6,18.3 76.4,21.5 76.4,26.3 L76.4,43 C76.4,45.9 77,47.4 80.2,46.7 L80.4,46.7 L80.4,51 C79.3486405,51.4097204 78.2282941,51.6134198 77.1,51.6 C73.3,51.6 71.5,49.8 70.8,46 L70.7,46 C67.9811826,49.9112009 63.4602512,52.1716667 58.7,52 C51.9,52 46.6,48.6 46.6,41.8 Z M70.7,38.1 L70.7,32.2 C68.2572548,33.4616274 65.6210155,34.3065759 62.9,34.7 C57,35.7 53.1,36.8 53.1,41.7 C53.1,46.6 56.7,47.4 60.3,47.4 C67.4,47.4 70.7,42.2 70.7,38.1 Z" id="Shape" fill="#FFFFFF"></path>
                    <path d="M82.6,15.5 L88.2,15.5 L88.2,4.2 L94.4,4.2 L94.4,15.5 L101.8,15.5 L101.8,20.3 L94.4,20.3 L94.4,42.9 C94.4,45.5 95.8,46.2 98,46.2 C99.0829593,46.1633291 100.157473,45.9954363 101.2,45.7 L101.4,45.7 L101.4,50.9 C99.7617931,51.2907222 98.0841384,51.4920408 96.4,51.5 C91.6,51.4 88.2,49.5 88.2,44.3 L88.2,20.3 L82.6,20.3 L82.6,15.5 Z" id="Path" fill="#FFFFFF"></path>
                    <path d="M106.7,41.8 C106.7,33.5 112.9,31.7 122.1,30.5 C127.4,29.9 130.8,29.1 130.8,25.4 C130.8,21.7 128.1,19.1 123.1,19.1 C118.1,19.1 114.7,21.8 114.5,26.1 L108.5,26.1 C108.8,20 113.4,14.6 123.1,14.6 C126.083391,14.4715652 129.048404,15.1266264 131.7,16.5 C134.7,18.3 136.5,21.5 136.5,26.3 L136.5,43 C136.5,45.9 137.2,47.4 140.3,46.7 L140.6,46.7 L140.6,51 C139.543186,51.3901065 138.426495,51.5931412 137.3,51.6 C133.5,51.6 131.6,49.8 130.9,46 L130.9,46 C128.156587,49.8826764 123.652189,52.1348752 118.9,52 C112.1,52 106.7,48.6 106.7,41.8 Z M130.9,38.1 L130.9,32.2 C128.421954,33.4618291 125.75283,34.3064883 123,34.7 C117.1,35.7 113.3,36.8 113.3,41.7 C113.3,46.6 116.8,47.4 120.4,47.4 C127.5,47.4 130.9,42.2 130.9,38.1 Z" id="Shape" fill="#FFFFFF"></path>
                    <path d="M143.4,35.2 L150.2,35.2 C151,42.7 155.9,46.8 164.9,46.8 C171.5,46.8 176.3,43.9 176.3,37.9 C176.3,31.9 170.5,29.9 161.9,27.9 C153.3,25.9 145.5,23.5 145.5,14 C145.5,4.5 152.5,0.8 162.7,0.8 C174.9,0.8 180.3,6.9 181.5,15.3 L174.9,15.3 C174.1,9.4 169.7,6.1 162.8,6.1 C155.9,6.1 152,8.8 152,13.7 C152,18.6 157.4,20.6 164.8,22.1 C174.4,24.1 183.1,26.5 183.1,37.6 C183.1,47 175.4,52.2 164.7,52.2 C150.8,52.2 144,44.7 143.4,35.2 Z" id="Path" fill="url(#linearGradient-6)"></path>
                    <path d="M201.6,32.4 L196.6,37.2 L196.6,51.2 L190.4,51.2 L190.4,1.7 L196.6,1.7 L196.6,25.2 C196.6,26.5 196.5,29 196.3,30.7 L211.8,15.5 L219.6,15.5 L205.9,28.3 L221.2,51.2 L213.9,51.2 L201.6,32.4 Z" id="Path" fill="url(#linearGradient-8)"></path>
                    <path d="M222.6,33.4 C222.6,23 229.4,14.6 239.7,14.6 C244.398356,14.448192 248.902594,16.4787911 251.9,20.1 C254.9,23.7 256.3,28.8 256.3,34.9 L228.9,34.9 C229.3,41.9 233.1,47.2 240.1,47.2 C245,47.2 248.4,44.9 249.5,41.1 L255.6,41.1 C254,47.7 248.3,52.2 240,52.2 C229,52.2 222.6,43.9 222.6,33.4 Z M229,30.4 L249.7,30.4 C249.4,23.5 245.9,19.4 239.7,19.4 C233.5,19.4 229.8,24.1 229,30.4 Z" id="Shape" fill="url(#linearGradient-10)"></path>
                    <path d="M260,15.5 L265.6,15.5 L265.6,4.2 L271.8,4.2 L271.8,15.5 L279.2,15.5 L279.2,20.3 L271.8,20.3 L271.8,42.9 C271.8,45.5 273.2,46.2 275.4,46.2 C276.482959,46.1633291 277.557473,45.9954363 278.6,45.7 L278.8,45.7 L278.8,50.9 C277.161793,51.2907222 275.484138,51.4920408 273.8,51.5 C269,51.4 265.6,49.5 265.6,44.3 L265.6,20.3 L260,20.3 L260,15.5 Z" id="Path" fill="url(#linearGradient-12)"></path>
                    <path d="M283.4,33.4 C283.4,23 290.1,14.6 300.8,14.6 C309.4,14.6 315,19.5 316.3,27.1 L310.1,27.1 C309.2,22.5 306,19.6 300.8,19.6 C293.5,19.6 289.7,25.7 289.7,33.4 C289.7,41.1 293.5,47.2 300.8,47.2 C306.4,47.2 309.7,43.9 310.2,38.6 L316.3,38.6 C315.5,47.1 309.9,52.2 300.8,52.2 C290.1,52.2 283.4,43.9 283.4,33.4 Z" id="Path" fill="url(#linearGradient-14)"></path>
                    <path d="M328.6,20.7 L328.8,20.7 C331.247739,16.7871664 335.586584,14.4655039 340.2,14.6 C347.7,14.6 352.3,18.8 352.3,26.3 L352.3,51.2 L346.2,51.2 L346.2,27 C346.2,22.4 343.2,19.8 338.3,19.8 C333.4,19.8 328.8,23.7 328.8,29.5 L328.8,51.2 L322.6,51.2 L322.6,1.7 L328.8,1.7 L328.8,14.7 C328.8,16.5 328.6,18.9 328.6,20.7 Z" id="Path" fill="url(#linearGradient-16)"></path>
                    <path d="M358.7,33.4 C358.7,23 365.5,14.6 375.8,14.6 C380.498356,14.448192 385.002594,16.4787911 388,20.1 C391,23.7 392.4,28.8 392.4,34.9 L365,34.9 C365.5,41.9 369.3,47.2 376.2,47.2 C381.1,47.2 384.5,44.9 385.6,41.1 L391.7,41.1 C390.1,47.7 384.4,52.2 376.1,52.2 C365.1,52.2 358.7,43.9 358.7,33.4 Z M365.1,30.4 L385.8,30.4 C385.5,23.5 382,19.4 375.8,19.4 C369.6,19.4 365.9,24.1 365.1,30.4 L365.1,30.4 Z" id="Shape" fill="url(#linearGradient-18)"></path>
                    <path d="M396.8,40.4 L403,40.4 C403.8,45.6 407.8,47.3 412.9,47.3 C418,47.3 420.9,44.9 420.9,41.7 C420.9,38.5 417.9,36.7 411.6,35.5 C405.3,34.3 398.3,32.5 398.3,24.7 C398.3,18.5 403.1,14.7 411.4,14.7 C419.7,14.7 424.9,18.9 425.7,25.1 L419.5,25.1 C418.9,21.4 416.4,19.3 411.3,19.3 C406.2,19.3 404.4,21.6 404.4,24.3 C404.4,27 407.8,28.8 413.9,30 C420,31.2 427.1,33 427.1,41.3 C427.1,49.6 421.1,52.3 412.8,52.3 C402.9,52.3 397.3,47.6 396.8,40.4 Z" id="Path" fill="url(#linearGradient-20)"></path>
                </g>
                <g transform="translate(21.000000, 0.000000)" fill="#FFFFFF">
                    <path d="M8.7,0.9 L13.4,0.9 L22.1,24.6 L17.3,24.6 L15.4,19 L6.4,19 L4.5,24.6 L0,24.6 L8.7,0.9 Z M7.5,15.7 L14.4,15.7 L12.5,10.2 C11.6,7.4 11,4.5 11,4.5 L11,4.5 C11,4.5 10.2,8 9.4,10.2 L7.5,15.7 Z" id="Shape"></path>
                    <path d="M24.4,7.6 L28.3,7.6 L28.3,10.1 L28.4,10.1 C29.439606,8.16091431 31.5023995,6.99329541 33.7,7.1 C38.2,7.1 41.1,10.7 41.1,16.1 C41.1,21.5 38.2,25.2 33.6,25.2 C31.5106753,25.2850728 29.5324008,24.2578918 28.4,22.5 L28.3,22.5 C28.4508743,23.5932752 28.5177368,24.6965059 28.5,25.8 L28.5,30.4 L24.4,30.4 L24.4,7.6 Z M37,16.2 C37,12.8 35.6,10.4 32.8,10.4 C30,10.4 28.3,13 28.3,16.2 C28.3,19.4 29.7,22 32.8,22 C35.9,22 37,19.6 37,16.2 Z" id="Shape"></path>
                    <path d="M54.4,22.4 L54.3,22.4 C53.1215514,24.1587188 51.1154964,25.1806714 49,25.1 C45.7,25.1 43.2,23.3 43.2,20 C43.2,16.7 46.1,15.2 50.2,14.7 C54.3,14.2 54.4,13.9 54.4,12.4 C54.4,10.9 53.4,9.9 51.3,9.9 C49.2,9.9 47.9,11 47.8,12.7 L44,12.7 C44.1,9.8 46.4,7.1 51.3,7.1 C52.894897,7.01932417 54.4825403,7.36446401 55.9,8.1 C57.5108776,9.19342544 58.423653,11.0570085 58.3,13 L58.3,22 C58.3,23.4 58.5,24.1 58.9,24.4 L58.9,24.6 L55,24.6 C54.5794937,23.9453836 54.3700614,23.177465 54.4,22.4 L54.4,22.4 Z M54.5,18.4 L54.5,15.9 C53.4735429,16.4585578 52.3563004,16.830972 51.2,17 C48.7,17.5 47.2,18 47.2,19.9 C47.2,21.8 48.6,22.3 50.2,22.3 C51.2946385,22.382601 52.3751177,22.0117013 53.1882425,21.274216 C54.0013672,20.5367308 54.4756683,19.4974809 54.5,18.4 L54.5,18.4 Z" id="Shape"></path>
                    <path d="M61.2,16.1 C61.2,11.1 64.5,7.1 69.8,7.1 C75.1,7.1 76.9,9.6 77.5,13.3 L73.5,13.3 C73.244718,11.4704019 71.6460313,10.1309617 69.8,10.2 C66.8,10.2 65.3,12.7 65.3,16.1 C65.3,19.5 66.8,22 69.8,22 C70.7889351,22.055027 71.7568544,21.7001766 72.475885,21.0189897 C73.1949156,20.3378029 73.6015297,19.3904636 73.6,18.4 L77.6,18.4 C77.3,22.4 74.4,25.2 69.8,25.2 C65.2,25.2 61.2,21.2 61.2,16.1 Z" id="Path"></path>
                    <path d="M84.2,10 L84.3,10 C85.4001901,8.13352543 87.4348721,7.02020886 89.6,7.1 C93.2,7.1 95.5,9.4 95.5,13.1 L95.5,24.6 L91.4,24.6 L91.4,13.7 C91.4638068,12.8153913 91.1329221,11.9478861 90.4962113,11.3304696 C89.8595005,10.7130531 88.9822272,10.4090111 88.1,10.5 C87.037979,10.4966848 86.0230307,10.9379536 85.3011028,11.7168758 C84.5791749,12.4957979 84.2161507,13.541289 84.3,14.6 L84.3,24.6 L80.2,24.6 L80.2,0.9 L84.3,0.9 L84.3,7.2 C84.3,7.7 84.2,9 84.2,10 Z" id="Path"></path>
                    <path d="M98.2,16.1 C98.2,11.1 101.6,7.1 106.6,7.1 C108.818584,7.02397878 110.964458,7.89687662 112.5,9.5 C114.2,11.3 115,14 115,17.1 L102.2,17.1 C102.5,20.1 104.1,22.1 106.9,22.1 C108.522171,22.2000156 110.03631,21.2835629 110.7,19.8 L114.6,19.8 C113.8,22.9 111.1,25.2 106.9,25.2 C102.7,25.2 98.2,21.2 98.2,16.1 Z M102.3,14.6 L110.8,14.6 C110.6,11.8 109.1,10.1 106.6,10.1 C104.1,10.1 102.6,11.9 102.3,14.6 Z" id="Shape"></path>
                </g>
            </g>
        </g>
        <text id="TM" fill="#FFFFFF" fill-rule="nonzero" font-family="Helvetica" font-size="24" font-weight="normal">
            <tspan x="423" y="365">TM</tspan>
        </text>
        <text id="®" fill="#FFFFFF" fill-rule="nonzero" font-family="Helvetica" font-size="24" font-weight="normal">
            <tspan x="136" y="332">®</tspan>
        </text>
    </g>
</svg>