<svg id="Layer_1" data-name="Layer 1" xmlns="http://www.w3.org/2000/svg" xmlns:xlink="http://www.w3.org/1999/xlink" width="460" height="420" viewBox="0 0 460 420">
  <title>ApacheDataSketch_VerticalColor-original</title>
  <defs>
    <linearGradient id="linear-gradient" x1="96.36" y1="101.03" x2="291.19" y2="262.75" gradientUnits="userSpaceOnUse">
      <stop offset="0" stop-color="#c62026"/>
      <stop offset="0" stop-color="#f9a01f"/>
      <stop offset="1" stop-color="#c62026"/>
    </linearGradient>
    <linearGradient id="linear-gradient-2" x1="124.54" y1="67.09" x2="319.36" y2="228.81" gradientUnits="userSpaceOnUse">
      <stop offset="0" stop-color="#c62026"/>
      <stop offset="0" stop-color="#f9a01f"/>
      <stop offset="0.71" stop-color="#c82027"/>
      <stop offset="1" stop-color="#481211"/>
    </linearGradient>
    <linearGradient id="linear-gradient-3" x1="142.3" y1="396.29" x2="349.86" y2="324.98" xlink:href="#linear-gradient-2"/>
    <linearGradient id="linear-gradient-4" x1="146.72" y1="409.16" x2="354.28" y2="337.85" xlink:href="#linear-gradient-2"/>
    <linearGradient id="linear-gradient-5" x1="152.48" y1="425.92" x2="360.04" y2="354.61" xlink:href="#linear-gradient-2"/>
    <linearGradient id="linear-gradient-6" x1="154.07" y1="430.56" x2="361.64" y2="359.25" xlink:href="#linear-gradient-2"/>
    <linearGradient id="linear-gradient-7" x1="158.91" y1="444.63" x2="366.47" y2="373.32" xlink:href="#linear-gradient-2"/>
    <linearGradient id="linear-gradient-8" x1="160.62" y1="449.62" x2="368.18" y2="378.31" xlink:href="#linear-gradient-2"/>
    <linearGradient id="linear-gradient-9" x1="166.85" y1="467.75" x2="374.41" y2="396.44" xlink:href="#linear-gradient-2"/>
    <linearGradient id="linear-gradient-10" x1="170.68" y1="478.89" x2="378.24" y2="407.58" xlink:href="#linear-gradient-2"/>
  </defs>

  <g id="Page-1">
    <g id="Man">
      <circle cx="175.7" cy="166.9" r="24.5" fill="url(#linear-gradient)"/>
      <path d="M280.3,76.7c16.5-22.4,44.6-59.9,52.3-69,0-.3-18,5.3-18,5.3s-29.1,41-48.1,74S232,147,194.1,224c-10.3,20.8-22.1,16.2-38,1.7s-54.2-50.6-54.2-75.2c0-29.1,21.7-36.1,37.2-39.2,8.8-1.8,12.1,1.2,12.1,3.5s-9,5.2-16.2,3.1c-2.1-.6,2,5.1,11.2,5.1,5.8,0,17.4-2.7,17.4-8.6,0-3.4-3.2-7.7-15.8-7.7-9.2,0-26,5-34.7,10.2S94,131,94,143.9c0,39.7,78.9,102.7,87.8,108.2,0-.1-13.3,38-13.3,59,0,15.1,2.4,25.9,2.9,27s27.4-20.4,51.1-27.6,46.5-14,92.1-13.7c0,0-47.1-7.3-84.3-23.8-40.5-17.9-41.2-20.2-43.9-21.7C222,174.9,256.5,108.9,280.3,76.7ZM185.6,261.8c.6-1.8,2.8-2,6.4,0,8,4.3,37.2,17.7,56.7,26.1,7.7,3.2,3.1,9.5-6.5,12.2s-31.1,8.5-49,16.7c-12.5,5.6-14.4,2.4-14.8,0C173.2,289.2,183.8,267,185.6,261.8Z" fill="url(#linear-gradient-2)"/>
    </g>
    <g>
      <g id="Apache">
        <path d="M7.9,361.7H26.2c14.8,0,22.1,10.1,22.1,25s-7.7,24.5-22.6,24.5H7.9Zm17.5,43.6c11.2,0,15.8-7.2,15.8-18.6s-4.1-19.1-15.4-19.1H14.7v37.7Z" fill="#481211"/>
        <path d="M53.6,401.8c0-8.3,6.1-10.1,15.4-11.3,5.3-.6,8.7-1.4,8.7-5.1s-2.8-6.3-7.7-6.3-8.4,2.7-8.6,7h-6c.3-6.1,4.9-11.5,14.5-11.5a17.8,17.8,0,0,1,8.7,1.9c3,1.8,4.8,5,4.8,9.8V403c0,2.9.6,4.4,3.8,3.7h.2V411a8.8,8.8,0,0,1-3.3.6c-3.8,0-5.6-1.8-6.3-5.6h-.1a14,14,0,0,1-12,6C58.9,412,53.6,408.6,53.6,401.8Zm24.1-3.7v-5.9a24.7,24.7,0,0,1-7.8,2.5c-5.9,1-9.8,2.1-9.8,7s3.6,5.7,7.2,5.7C74.4,407.4,77.7,402.2,77.7,398.1Z" fill="#481211"/>
        <path d="M89.6,375.5h5.6V364.2h6.2v11.3h7.4v4.8h-7.4v22.6c0,2.6,1.4,3.3,3.6,3.3a13.4,13.4,0,0,0,3.2-.5h.2v5.2a22,22,0,0,1-5,.6c-4.8-.1-8.2-2-8.2-7.2v-24H89.6Z" fill="#481211"/>
        <path d="M113.7,401.8c0-8.3,6.2-10.1,15.4-11.3,5.3-.6,8.7-1.4,8.7-5.1s-2.7-6.3-7.7-6.3-8.4,2.7-8.6,7h-6c.3-6.1,4.9-11.5,14.6-11.5a17.1,17.1,0,0,1,8.6,1.9c3,1.8,4.8,5,4.8,9.8V403c0,2.9.7,4.4,3.8,3.7h.3V411a9.7,9.7,0,0,1-3.3.6c-3.8,0-5.7-1.8-6.4-5.6h0a14.2,14.2,0,0,1-12,6C119.1,412,113.7,408.6,113.7,401.8Zm24.2-3.7v-5.9a25.3,25.3,0,0,1-7.9,2.5c-5.9,1-9.7,2.1-9.7,7s3.5,5.7,7.1,5.7C134.5,407.4,137.9,402.2,137.9,398.1Z" fill="#481211"/>
        <path d="M150.4,395.2h6.8c.8,7.5,5.7,11.6,14.7,11.6,6.6,0,11.4-2.9,11.4-8.9s-5.8-8-14.4-10-16.4-4.4-16.4-13.9,7-13.2,17.2-13.2c12.2,0,17.6,6.1,18.8,14.5h-6.6c-.8-5.9-5.2-9.2-12.1-9.2s-10.8,2.7-10.8,7.6,5.4,6.9,12.8,8.4c9.6,2,18.3,4.4,18.3,15.5,0,9.4-7.7,14.6-18.4,14.6C157.8,412.2,151,404.7,150.4,395.2Z" fill="url(#linear-gradient-3)"/>
        <path d="M208.6,392.4l-5,4.8v14h-6.2V361.7h6.2v23.5c0,1.3-.1,3.8-.3,5.5l15.5-15.2h7.8l-13.7,12.8,15.3,22.9h-7.3Z" fill="url(#linear-gradient-4)"/>
        <path d="M229.6,393.4c0-10.4,6.8-18.8,17.1-18.8a15.2,15.2,0,0,1,12.2,5.5c3,3.6,4.4,8.7,4.4,14.8H235.9c.4,7,4.2,12.3,11.2,12.3,4.9,0,8.3-2.3,9.4-6.1h6.1c-1.6,6.6-7.3,11.1-15.6,11.1C236,412.2,229.6,403.9,229.6,393.4Zm6.4-3h20.7c-.3-6.9-3.8-11-10-11S236.8,384.1,236,390.4Z" fill="url(#linear-gradient-5)"/>
        <path d="M267,375.5h5.6V364.2h6.2v11.3h7.4v4.8h-7.4v22.6c0,2.6,1.4,3.3,3.6,3.3a13.4,13.4,0,0,0,3.2-.5h.2v5.2a22,22,0,0,1-5,.6c-4.8-.1-8.2-2-8.2-7.2v-24H267Z" fill="url(#linear-gradient-6)"/>
        <path d="M290.4,393.4c0-10.4,6.7-18.8,17.4-18.8,8.6,0,14.2,4.9,15.5,12.5h-6.2c-.9-4.6-4.1-7.5-9.3-7.5-7.3,0-11.1,6.1-11.1,13.8s3.8,13.8,11.1,13.8c5.6,0,8.9-3.3,9.4-8.6h6.1c-.8,8.5-6.4,13.6-15.5,13.6C297.1,412.2,290.4,403.9,290.4,393.4Z" fill="url(#linear-gradient-7)"/>
        <path d="M335.6,380.7h.2a13,13,0,0,1,11.4-6.1c7.5,0,12.1,4.2,12.1,11.7v24.9h-6.1V387c0-4.6-3-7.2-7.9-7.2s-9.5,3.9-9.5,9.7v21.7h-6.2V361.7h6.2v13C335.8,376.5,335.6,378.9,335.6,380.7Z" fill="url(#linear-gradient-8)"/>
        <path d="M365.7,393.4c0-10.4,6.8-18.8,17.1-18.8a15.2,15.2,0,0,1,12.2,5.5c3,3.6,4.4,8.7,4.4,14.8H372c.5,7,4.3,12.3,11.2,12.3,4.9,0,8.3-2.3,9.4-6.1h6.1c-1.6,6.6-7.3,11.1-15.6,11.1C372.1,412.2,365.7,403.9,365.7,393.4Zm6.4-3h20.7c-.3-6.9-3.8-11-10-11S372.9,384.1,372.1,390.4Z" fill="url(#linear-gradient-9)"/>
        <path d="M403.8,400.4H410c.8,5.2,4.8,6.9,9.9,6.9s8-2.4,8-5.6-3-5-9.3-6.2-13.3-3-13.3-10.8c0-6.2,4.8-10,13.1-10s13.5,4.2,14.3,10.4h-6.2c-.6-3.7-3.1-5.8-8.2-5.8s-6.9,2.3-6.9,5,3.4,4.5,9.5,5.7,13.2,3,13.2,11.3-6,11-14.3,11C409.9,412.3,404.3,407.6,403.8,400.4Z" fill="url(#linear-gradient-10)"/>
      </g>
      <g id="Apache">
        <path d="M36.7,327.9h4.7l8.7,23.7H45.3L43.4,346h-9l-1.9,5.6H28Zm-1.2,14.8h6.9l-1.9-5.5c-.9-2.8-1.5-5.7-1.5-5.7h0s-.8,3.5-1.6,5.7Z" fill="#481211"/>
        <path d="M52.4,334.6h3.9v2.5h.1a5.7,5.7,0,0,1,5.3-3c4.5,0,7.4,3.6,7.4,9s-2.9,9.1-7.5,9.1a5.9,5.9,0,0,1-5.2-2.7h-.1a21.6,21.6,0,0,1,.2,3.3v4.6H52.4ZM65,343.2c0-3.4-1.4-5.8-4.2-5.8s-4.5,2.6-4.5,5.8,1.4,5.8,4.5,5.8S65,346.6,65,343.2Z" fill="#481211"/>
        <path d="M82.4,349.4h-.1a6.1,6.1,0,0,1-5.3,2.7c-3.3,0-5.8-1.8-5.8-5.1s2.9-4.8,7-5.3,4.2-.8,4.2-2.3-1-2.5-3.1-2.5-3.4,1.1-3.5,2.8H72c.1-2.9,2.4-5.6,7.3-5.6a9,9,0,0,1,4.6,1,5.5,5.5,0,0,1,2.4,4.9v9c0,1.4.2,2.1.6,2.4v.2H83A3.8,3.8,0,0,1,82.4,349.4Zm.1-4v-2.5a9.9,9.9,0,0,1-3.3,1.1c-2.5.5-4,1-4,2.9s1.4,2.4,3,2.4A4,4,0,0,0,82.5,345.4Z" fill="#481211"/>
        <path d="M89.2,343.1c0-5,3.3-9,8.6-9s7.1,2.5,7.7,6.2h-4a3.6,3.6,0,0,0-3.7-3.1c-3,0-4.5,2.5-4.5,5.9s1.5,5.9,4.5,5.9a3.6,3.6,0,0,0,3.8-3.6h4c-.3,4-3.2,6.8-7.8,6.8S89.2,348.2,89.2,343.1Z" fill="#481211"/>
        <path d="M112.2,337h.1a5.9,5.9,0,0,1,5.3-2.9c3.6,0,5.9,2.3,5.9,6v11.5h-4.1V340.7a3,3,0,0,0-3.3-3.2,3.8,3.8,0,0,0-3.8,4.1v10h-4.1V327.9h4.1v6.3C112.3,334.7,112.2,336,112.2,337Z" fill="#481211"/>
        <path d="M126.2,343.1c0-5,3.4-9,8.4-9a7.8,7.8,0,0,1,5.9,2.4c1.7,1.8,2.5,4.5,2.5,7.6H130.2c.3,3,1.9,5,4.7,5a3.9,3.9,0,0,0,3.8-2.3h3.9c-.8,3.1-3.5,5.4-7.7,5.4S126.2,348.2,126.2,343.1Zm4.1-1.5h8.5c-.2-2.8-1.7-4.5-4.2-4.5S130.6,338.9,130.3,341.6Z" fill="#481211"/>
      </g>
    </g>
    <text id="TM" fill="#4D0000" fill-rule="nonzero" font-family="Helvetica" font-size="24" font-weight="bold">
        <tspan x="423" y="365">TM</tspan>
    </text>
    <text id="®" fill="#4D0000" fill-rule="nonzero" font-family="Helvetica" font-size="24" font-weight="bold">
        <tspan x="136" y="332">®</tspan>
    </text>
  </g>
</svg>
