<svg id="Layer_1" data-name="Layer 1" xmlns="http://www.w3.org/2000/svg" xmlns:xlink="http://www.w3.org/1999/xlink" width="250" height="357" viewBox="0 0 250 357">
  <title>ApacheDataSketches_ManColor-TM</title>
  <defs>
    <linearGradient id="linear-gradient" x1="13.66" y1="106.04" x2="210.12" y2="269.11" gradientUnits="userSpaceOnUse">
      <stop offset="0" stop-color="#c70000"/>
      <stop offset="0" stop-color="#ffa017"/>
      <stop offset="1" stop-color="#c70000"/>
    </linearGradient>
    <linearGradient id="linear-gradient-2" x1="42.07" y1="71.81" x2="238.53" y2="234.89" gradientUnits="userSpaceOnUse">
      <stop offset="0" stop-color="#c70000"/>
      <stop offset="0" stop-color="#ffa017"/>
      <stop offset="0.71" stop-color="#c90501"/>
      <stop offset="1" stop-color="#4d0000"/>
    </linearGradient>
  </defs>
  <g id="Page-1">
    <g id="Man">
      <circle cx="93.7" cy="172.4" r="24.7" fill="url(#linear-gradient)"/>
      <path d="M199.1,81.5c16.7-22.5,45-60.4,52.8-69.6,0-.2-18.2,5.4-18.2,5.4s-29.3,41.4-48.5,74.6-34.8,60.5-73,138.1c-10.4,21-22.2,16.3-38.3,1.8S19.2,180.7,19.2,156c0-29.4,21.9-36.5,37.6-39.6,8.8-1.8,12.1,1.2,12.1,3.5s-9,5.2-16.3,3.2c-2.1-.6,2,5.1,11.3,5.1,5.9,0,17.6-2.8,17.6-8.6,0-3.5-3.3-7.8-16-7.8-9.2,0-26.2,5-35,10.3s-19.2,14.1-19.2,27.2c0,40,79.6,103.5,88.5,109.1,0-.2-13.4,38.3-13.4,59.4,0,15.3,2.4,26.2,2.9,27.3s27.7-20.6,51.6-27.8,46.8-14.1,92.8-13.9c0,0-47.4-7.3-85-23.9-40.8-18.1-41.5-20.5-44.3-21.9C140.4,180.5,175.1,114,199.1,81.5ZM103.7,268.2c.6-1.8,2.7-2.1,6.4-.1,8,4.4,37.5,17.9,57.2,26.3,7.7,3.3,3.1,9.6-6.6,12.4s-31.3,8.6-49.4,16.8c-12.6,5.7-14.5,2.4-14.9,0C91.1,295.8,101.8,273.4,103.7,268.2Z" fill="url(#linear-gradient-2)"/>
    </g>
    <text id="TM" font-family="Helvetica-Bold, Helvetica" font-size="24" font-weight="bold" fill="#4D0000">
        <tspan x="200" y="330">TM</tspan>
    </text>
  </g>
</svg>
